<svg xmlns="http://www.w3.org/2000/svg" width="1506" height="493" viewBox="0 0 1506 493" fill="none">
<path d="M10.8174 157.561C109.183 149.904 178.605 125.551 224.101 104.467C270.107 83.1458 303.241 59.7566 363.786 47.1817C430.565 33.2096 474.198 39.4691 491.456 42.9901C515.383 47.8803 513.896 51.2057 553.038 62.551C628.228 84.3474 642.512 74.6508 676.202 89.0979C732.061 113.046 715.404 149.387 773.831 189.697C816.142 218.898 886.196 242.134 949.565 226.024C1009.24 210.851 1015.95 172.749 1078.74 167.342C1104.53 165.12 1125.97 170.052 1168.86 179.916C1223.81 192.491 1260.72 208 1275.5 213.449C1319.28 229.615 1389.95 239.787 1505.3 207.861" stroke="#333333" stroke-width="0.8" stroke-miterlimit="10"/>
<path d="M10.1562 169.884C105.308 163.275 176.442 141.228 226.068 119.375C266.382 101.379 297.128 81.6506 339.499 67.5528C348.766 64.479 358.529 61.5029 369.043 58.932C435.296 42.7524 478.764 45.421 496.908 47.0558C521.24 49.2354 521.24 51.7225 559.601 62.7464C586.637 70.5009 605.893 74.9301 620.808 77.8362C646.161 82.7684 658.853 83.1037 678.86 92.5908C686.325 96.1016 693.33 100.401 699.738 105.403C729.372 128.527 728.11 157.84 777.271 188.914C820.063 215.964 889.65 236.419 951.938 220.421C956.873 219.151 961.735 217.649 966.507 215.922C1014.66 198.471 1025.48 167.774 1080.66 162.954C1086.47 162.438 1092.32 162.284 1098.16 162.493C1117.77 163.136 1138.05 167.691 1170.16 175.068C1223.36 187.363 1259.7 202.579 1275.99 208.601C1287.93 212.971 1300.24 216.401 1312.79 218.856C1356.23 227.463 1417.63 228.357 1504.01 206.393" stroke="#333333" stroke-width="0.8" stroke-miterlimit="10"/>
<path d="M9.49561 183.298C101.418 177.709 174.34 158.148 228.036 135.262C270.678 117.098 302.85 96.3494 344.441 81.539C353.933 78.1437 363.771 74.7066 374.33 71.7585C440.058 53.3573 483.3 51.1357 502.406 52.1976C527.023 53.5948 528.661 53.3294 566.18 64.018C592.45 71.521 611.631 76.5929 626.26 80.1557C650.908 86.1218 662.759 87.3234 681.474 97.1737C688.605 100.967 695.307 105.419 701.48 110.461C730.108 133.431 731.52 160.984 780.741 189.264C824.013 214.148 893.135 231.823 954.341 215.936C959.523 214.539 964.314 213.142 968.805 211.465C1018.48 193.693 1029.47 164.421 1082.63 159.769C1088.4 159.24 1094.2 159.067 1099.99 159.252C1119.94 159.797 1140.18 164.226 1171.51 171.533C1222.97 183.493 1258.71 198.457 1276.53 204.912C1288.38 209.243 1300.57 212.681 1313 215.196C1356.05 223.998 1417.17 225.856 1502.69 206.072" stroke="#333333" stroke-width="0.8" stroke-miterlimit="10"/>
<path d="M8.8501 197.619C97.543 193.106 172.207 175.851 230.019 152.126C274.929 133.683 308.573 111.984 349.353 96.4473C359.086 92.7307 369.014 88.8465 379.588 85.5071C444.789 64.9123 487.732 60.5949 507.873 58.2476C532.791 55.3554 536.051 55.8444 572.745 66.1977C598.278 73.4213 617.384 79.1498 631.803 83.3694C655.73 90.3554 666.769 92.4513 684.193 102.651C690.935 106.733 697.296 111.337 703.208 116.413C730.83 139.216 735.005 164.994 784.165 190.465C827.979 213.184 896.575 228.092 956.7 212.304C961.837 210.906 966.598 209.509 971.059 207.875C1022.22 189.711 1033.44 161.92 1084.53 157.296C1090.26 156.754 1096.02 156.563 1101.78 156.723C1122.05 157.156 1142.33 161.487 1172.84 168.655C1222.52 180.266 1257.68 194.964 1277.03 201.964C1288.8 206.229 1300.89 209.671 1313.21 212.262C1355.87 221.26 1416.7 224.096 1501.35 206.477" stroke="#333333" stroke-width="0.8" stroke-miterlimit="10"/>
<path d="M8.18896 211.968C93.6676 208.503 170.044 193.581 231.986 169.004C279.179 150.268 314.281 127.605 354.279 111.369C364.237 107.331 374.24 102.986 384.86 99.2695C449.536 76.5229 492.087 68.7824 513.355 64.3393C538.484 59.0858 543.395 58.4012 579.323 68.4191C604.181 75.4052 623.121 81.7485 637.3 86.5828C660.506 94.5749 670.719 97.5928 686.866 108.128C693.208 112.49 699.23 117.241 704.89 122.351C731.52 144.958 738.459 168.976 787.575 191.723C831.929 212.262 899.984 224.417 959.043 208.741C964.119 207.343 968.851 205.946 973.297 204.339C1025.96 185.798 1037.37 159.629 1086.43 154.948C1092.12 154.414 1097.83 154.204 1103.55 154.319C1124.13 154.655 1144.34 158.874 1174.14 165.902C1222.09 177.192 1256.66 191.639 1277.53 199.142C1289.21 203.365 1301.2 206.815 1313.41 209.467C1355.69 218.675 1416.24 222.461 1500.03 207.036" stroke="#333333" stroke-width="0.8" stroke-miterlimit="10"/>
<path d="M7.55811 221.218C89.8224 218.8 167.926 206.226 233.984 180.796C283.445 161.753 320.018 138.084 359.235 121.206C369.404 116.832 379.512 112.082 390.162 107.946C454.282 83.0478 496.488 71.954 518.823 65.3173C544.176 57.8003 550.83 55.8302 585.887 65.5269C605.246 70.9011 624.249 77.3301 642.797 84.7804C665.327 93.7644 674.685 97.7325 689.509 108.533C695.983 113.269 701.12 118.313 706.677 123.218C732.316 145.573 742.034 167.928 791.059 187.88C835.999 206.226 903.484 215.643 961.461 200.078C966.492 198.681 971.194 197.283 975.61 195.705C1029.79 176.828 1041.4 152.042 1088.41 147.501C1094.05 146.965 1099.73 146.741 1105.4 146.83C1126.3 147.096 1146.49 151.162 1175.48 158.008C1221.67 168.934 1255.67 183.158 1278.04 191.164C1289.65 195.342 1301.54 198.796 1313.65 201.503C1355.54 210.92 1415.78 215.685 1498.72 202.425" stroke="#333333" stroke-width="0.8" stroke-miterlimit="10"/>
<path d="M6.86816 227.813C85.9032 226.415 165.734 216.174 235.923 189.92C287.651 170.569 325.667 145.866 364.133 128.443C374.527 123.721 384.71 118.551 395.404 114.024C459.044 87.0159 500.92 72.5828 524.306 63.7245C549.84 54.0139 558.221 50.6886 592.466 60.0499C611.655 65.296 630.327 72.055 648.281 80.2535C670.074 90.2016 678.636 95.1477 692.169 106.325C698.177 111.257 702.908 116.511 708.42 121.471C733.083 143.687 745.595 164.114 794.5 181.425C840.055 197.549 906.954 204.256 963.85 188.789C968.822 187.391 973.478 185.994 977.894 184.443C1033.59 165.274 1045.44 141.912 1090.35 137.539C1095.95 136.989 1101.58 136.746 1107.22 136.812C1128.42 136.98 1148.61 140.92 1176.8 147.683C1221.23 158.287 1254.65 172.246 1278.55 180.783C1290.08 184.908 1301.87 188.365 1313.86 191.136C1355.38 200.763 1415.33 206.505 1497.42 195.397" stroke="#333333" stroke-width="0.8" stroke-miterlimit="10"/>
<path d="M6.22119 234.505C82.0269 234.184 163.555 226.22 237.904 199.142C291.886 179.469 331.328 153.705 369.043 135.653C379.662 130.553 389.951 124.964 400.675 120.074C463.804 90.984 505.38 73.2674 529.772 62.0898C555.651 50.2415 565.61 45.5189 599.029 54.5449C618.078 59.7361 636.442 66.8972 653.777 75.8942C674.805 86.7784 682.585 92.7585 694.841 104.216C700.339 109.357 704.694 114.778 710.147 119.836C733.848 141.814 749.199 160.425 797.953 175.068C844.14 188.942 910.408 192.952 966.177 177.611C971.103 176.214 975.73 174.816 980.115 173.28C1037.33 153.719 1049.31 131.824 1092.24 127.479C1097.8 126.929 1103.38 126.668 1108.97 126.697C1130.51 126.697 1150.67 130.581 1178.06 137.232C1220.75 147.473 1253.57 161.208 1279 170.234C1290.45 174.324 1302.14 177.794 1314.02 180.629C1355.15 190.409 1414.82 197.13 1496.04 188.23" stroke="#333333" stroke-width="0.8" stroke-miterlimit="10"/>
<path d="M5.56055 241.226C78.152 241.952 161.393 236.294 239.872 208.391C296.122 188.397 336.991 161.557 373.97 142.96C384.784 137.525 395.193 131.559 405.933 126.194C468.566 95.022 509.871 74.0219 535.254 60.5249C561.449 46.5529 573 40.4051 605.608 49.0958C624.512 54.227 642.57 61.749 659.274 71.4511C679.656 83.2854 686.52 90.2994 697.5 102.036C702.502 107.401 706.512 112.962 711.889 118.118C734.629 139.872 752.789 156.625 801.393 168.641C848.24 180.224 913.863 181.593 968.595 166.349C973.477 164.952 978.073 163.555 982.429 162.06C1041.17 142.206 1053.32 121.709 1094.22 117.447C1099.74 116.896 1105.28 116.616 1110.83 116.609C1132.69 116.483 1152.89 120.283 1179.46 126.794C1220.37 136.701 1252.62 150.198 1279.57 159.727C1290.94 163.789 1302.53 167.282 1314.29 170.192C1355.04 180.224 1414.43 187.866 1494.79 181.146" stroke="#333333" stroke-width="0.8" stroke-miterlimit="10"/>
<path d="M4.89941 247.918C74.2766 249.651 159.26 246.284 241.869 217.571C300.447 197.242 342.653 169.311 378.926 150.198C389.951 144.385 400.465 138.042 411.234 132.285C473.357 99.0738 514.406 74.8043 540.767 58.9181C567.337 42.8921 580.434 35.2634 612.216 43.6187C630.99 48.7321 648.745 56.6504 664.786 67.0638C684.462 79.8063 690.47 87.9101 700.173 99.9121C704.679 105.501 708.299 111.188 713.691 116.455C735.5 137.972 756.498 152.782 804.923 162.256C852.431 171.519 917.392 170.275 971.058 155.144C975.88 153.747 980.446 152.349 984.787 150.952C1045.05 130.79 1057.38 111.691 1096.22 107.541C1101.71 106.96 1107.22 106.662 1112.74 106.647C1134.91 106.507 1155.04 110.098 1180.89 116.427C1220.04 125.998 1251.71 139.257 1280.18 149.289C1290.47 152.922 1301.87 156.513 1314.62 159.727C1354.98 169.954 1414.09 178.575 1493.57 174.02" stroke="#333333" stroke-width="0.8" stroke-miterlimit="10"/>
<path d="M4.23926 254.415C70.3271 257.21 157.037 256.148 243.808 226.639C304.578 205.974 348.241 176.926 383.824 157.309C395.044 151.12 405.678 144.413 416.477 138.238C478.149 102.986 518.973 75.461 546.204 57.1995C573.15 39.0358 587.78 30.0099 618.751 38.0298C637.414 43.1302 654.887 51.4326 670.269 62.5089C689.27 76.1736 694.301 85.3812 702.818 97.6207C706.828 103.433 710.087 109.259 715.359 114.625C736.237 135.876 760.059 148.828 808.288 155.703C856.517 162.577 920.772 158.776 973.357 143.756C978.133 142.359 982.669 140.962 986.98 139.565C1048.77 119.096 1061.28 101.393 1098.13 97.3413C1103.56 96.7511 1109.02 96.4386 1114.48 96.4051C1137.01 96.1397 1157.08 99.6327 1182.07 105.878C1219.49 115.1 1250.55 128.136 1280.56 138.657C1290.8 142.261 1302.11 145.838 1314.72 149.122C1354.68 159.545 1413.5 169.13 1492.13 166.768" stroke="#333333" stroke-width="0.8" stroke-miterlimit="10"/>
<path d="M3.59277 260.829C66.5114 264.699 154.859 265.886 245.79 235.595C308.873 214.637 353.843 184.401 388.735 164.337C400.165 157.757 410.919 150.701 421.779 144.106C482.97 106.8 523.584 76.0619 551.671 55.3413C579.053 35.1936 595.229 24.6028 625.269 32.3014C645.215 37.4152 663.33 47.992 675.721 57.8144C694.06 72.3733 698.251 82.7126 705.446 95.1897C708.93 101.226 711.844 107.192 717.041 112.669C737.002 133.627 763.603 144.651 811.667 148.996C860.527 153.453 924.166 147.138 975.67 132.23C980.386 130.832 984.892 129.435 989.188 128.038C1052.5 107.248 1065.17 90.9422 1099.94 87.0021C1105.33 86.4032 1110.75 86.072 1116.18 86.01C1139 85.6048 1159.06 89.014 1183.35 95.1338C1219.01 104.02 1249.44 116.818 1280.98 127.842C1291.18 131.405 1302.4 134.996 1314.84 138.321C1354.43 148.954 1412.96 159.503 1490.72 159.28" stroke="#333333" stroke-width="0.8" stroke-miterlimit="10"/>
<path d="M2.93262 267.158C62.637 272.09 152.622 275.373 247.758 244.453C312.99 222.992 359.431 191.779 393.662 171.226C405.272 164.24 416.192 156.848 427.021 149.834C487.792 110.559 528.211 76.495 557.154 53.4271C584.986 31.2394 602.544 19.1676 631.893 26.5169C651.134 31.3791 669.158 42.5149 681.264 53.0638C698.943 68.5169 702.127 79.974 708.15 92.7026C711.154 98.9621 713.692 105.04 718.829 110.629C737.874 131.363 767.298 140.361 815.182 142.303C864.748 144.301 927.697 135.513 978.119 120.703C982.795 119.315 987.266 117.917 991.531 116.511C1056.39 95.4411 1069.23 80.5049 1101.96 76.6766C1107.3 76.0616 1112.68 75.7118 1118.06 75.6287C1141.19 75.1117 1161.26 78.4231 1184.76 84.4032C1218.65 92.9401 1248.52 105.571 1281.61 117.042C1291.77 120.591 1302.88 124.154 1315.18 127.535C1354.38 138.377 1412.63 149.89 1489.53 151.874" stroke="#333333" stroke-width="0.8" stroke-miterlimit="10"/>
<path d="M2.271 273.389C58.746 279.355 150.458 284.944 249.725 253.214C317.225 231.431 365.033 199.016 398.588 178.058C410.378 170.695 421.418 162.94 432.292 155.507C492.628 114.234 532.926 76.9001 562.621 51.4011C590.933 27.1596 609.933 13.5508 638.396 20.5787C656.946 25.1755 674.895 36.8841 686.685 48.1875C703.733 64.5349 705.911 77.1377 710.717 90.1038C713.151 96.6008 715.419 102.804 720.465 108.491C738.715 128.946 770.947 137.329 818.636 135.443C868.772 133.459 931.165 123.721 980.521 109.022C985.147 107.634 989.583 106.237 993.829 104.83C1060.25 83.5648 1073.22 69.9001 1103.91 66.1836C1109.21 65.5635 1114.55 65.1998 1119.89 65.0938C1143.34 64.479 1163.45 67.6646 1186.1 73.477C1218.17 81.7485 1247.52 94.2255 1282.12 106.116C1292.23 109.637 1303.25 113.2 1315.39 116.637C1354.22 127.689 1412.18 140.166 1488.21 144.329" stroke="#333333" stroke-width="0.8" stroke-miterlimit="10"/>
<path d="M1.55078 279.551C54.8116 286.537 148.236 294.459 251.633 261.904C321.401 239.8 370.486 206.198 403.44 184.764C415.456 176.996 426.616 168.92 437.49 161.012C497.42 117.698 537.493 77.1795 568.044 49.2353C596.897 22.9678 617.369 7.90595 645.036 14.5846C662.88 18.9159 680.753 31.1834 692.244 43.2413C708.66 60.4549 709.787 74.2034 713.467 87.3931C715.359 94.1276 717.327 100.443 722.299 106.255C739.571 126.431 774.478 131.405 822.076 128.499C872.874 125.439 934.606 111.844 982.88 97.2573C987.386 95.8601 991.892 94.4629 996.082 93.0657C1064.02 71.4789 1077.19 59.1974 1105.83 55.6066C1111.09 54.9697 1116.38 54.5872 1121.68 54.4609C1145.44 53.7343 1165.48 56.8222 1187.41 62.5228C1217.79 70.3891 1246.5 82.5587 1282.62 95.0218C1292.7 98.5148 1303.65 102.008 1315.66 105.571C1354.1 116.748 1411.79 130.259 1486.89 136.603" stroke="#333333" stroke-width="0.8" stroke-miterlimit="10"/>
<path d="M0.964355 285.643C50.9958 293.705 146.117 303.904 253.675 270.539C325.771 248.114 376.088 213.254 408.381 191.443C420.517 183.256 431.902 174.872 442.777 166.573C502.391 121.415 542.209 77.4311 573.45 47.0838C602.769 18.7065 624.593 2.19151 651.554 8.56277C668.692 12.6286 686.52 25.455 697.695 38.2534C713.496 56.4171 713.541 71.2275 716.095 84.6686C717.401 91.6547 719.099 98.0678 723.98 103.992C740.382 123.888 778.052 126.739 825.47 121.527C876.883 115.938 938.03 99.9401 985.207 85.4511C989.713 84.0539 994.114 82.6567 998.305 81.3712C1067.77 59.463 1081.09 48.5229 1107.71 45.0438C1112.96 44.416 1118.25 44.0429 1123.54 43.9261C1145.58 43.1542 1167.6 45.7502 1188.73 51.6107C1217.36 59.1417 1245.47 71.0738 1283.13 84.0399C1293.16 87.491 1304.01 91.0259 1315.83 94.6028C1371.09 111.053 1427.91 122.567 1485.52 128.988" stroke="#333333" stroke-width="0.8" stroke-miterlimit="10"/>
<path d="M0.303711 291.693C47.1209 300.803 143.955 313.308 255.643 279.118C329.947 256.371 381.6 220.337 413.353 198.08C554.285 99.1996 598.894 -11.2356 658.178 2.47096C674.61 6.27136 692.393 19.6566 703.238 33.2095C726.399 62.1317 711.799 84.0679 725.768 101.673C760.013 144.846 914.058 96.6287 1000.63 69.5369C1085.05 43.1157 1088.17 34.6067 1125.3 33.2095C1190.11 30.7365 1223.8 54.9501 1316.05 83.509C1370.9 100.408 1427.17 113.026 1484.28 121.234" stroke="#333333" stroke-width="0.8" stroke-miterlimit="10"/>
<path d="M0.303711 295.689C48.3676 305.651 142.197 317.066 248.974 284.343C322.677 261.695 372.138 225.311 406.218 201.908C542.359 108.533 584.82 7.40307 645.216 16.429C668.812 19.95 692.769 27.0059 708.585 37.8203C739.661 59.0858 728.111 78.1017 746.135 95.1057C785.592 132.355 929.273 90.5369 1011.7 65.6806C1092 41.3831 1095.24 34.5089 1134.49 35.9061C1199.71 38.2255 1231.87 59.6586 1318.77 87.0718C1372.99 104.166 1428.82 116.474 1485.52 123.832" stroke="#333333" stroke-width="0.8" stroke-miterlimit="10"/>
<path d="M0.304199 299.852C80.4601 317.017 164.131 313.515 242.306 289.723C315.408 267.186 362.586 230.425 399.084 205.89C530.253 117.782 571.318 24.449 632.269 30.5408C663.195 33.6426 692.274 34.4251 713.932 42.5987C751.092 56.5708 743.852 72.0798 766.502 88.7066C809.775 120.437 944.489 84.5988 1022.79 61.978C1098.83 39.8043 1102.21 34.4251 1143.7 38.7564C1209.16 45.5748 1239.93 64.6606 1321.49 90.8024C1375.06 108.08 1430.44 120.078 1486.71 126.599" stroke="#333333" stroke-width="0.8" stroke-miterlimit="10"/>
<path d="M0.303223 307.258C78.1251 324.628 159.605 321.542 235.651 298.344C308.137 275.905 353.047 238.767 391.949 213.114C517.876 130.092 558.25 54.4193 619.306 47.8943C657.502 43.8145 691.281 45.4911 719.294 50.6049C761.62 58.3175 759.157 69.3135 786.883 85.5351C832.784 112.389 959.733 82.0421 1033.86 61.5171C1105.77 41.6069 1109.12 37.4572 1152.89 44.8345C1218.56 55.9003 1247.98 72.8764 1324.22 97.7607C1377.16 115.242 1432.1 126.936 1487.94 132.607" stroke="#333333" stroke-width="0.8" stroke-miterlimit="10"/>
<path d="M0.304199 318.533C75.786 336.1 155.073 333.416 228.983 310.792C300.869 288.437 343.495 250.922 384.815 224.166C505.41 146.076 545.363 77.6266 606.36 69.0757C651.675 62.7324 691.688 53.0358 724.642 62.439C769.987 75.3771 771.684 76.2713 807.252 86.1915C850.043 116.385 974.964 83.2713 1044.94 64.8841C1112.68 47.1395 1116.02 44.2054 1162.1 54.7543C1227.93 69.8302 1256.02 84.9759 1326.94 108.547C1379.24 126.227 1433.75 137.613 1489.16 142.429" stroke="#333333" stroke-width="0.8" stroke-miterlimit="10"/>
<path d="M0.303223 330.074C73.4416 347.849 150.541 345.607 222.343 323.619C293.628 301.375 333.957 263.441 377.71 235.595C492.853 162.298 532.355 100.443 593.336 90.6348C645.906 82.1957 689.644 68.8104 730.018 74.6647C782.077 82.2096 786.688 79.2475 827.648 87.2396C872.542 114.108 990.179 84.7665 1055.95 68.6288C1119.52 53.0499 1122.85 51.1916 1171.23 65.0519C1237.32 83.9422 1263.98 97.4811 1329.6 119.711C1381.26 137.59 1435.36 148.67 1490.31 152.629" stroke="#333333" stroke-width="0.8" stroke-miterlimit="10"/>
<path d="M0.303711 341.838C71.0818 359.786 145.972 357.964 215.645 336.599C286.329 314.453 324.329 276.1 370.546 247.178C480.191 178.561 519.243 122.966 580.45 112.347C640.124 101.994 688.383 93.4989 735.335 87.0299C793.312 79.0378 801.634 82.3492 847.985 88.4271C895.058 112.054 1005.39 86.471 1067.1 72.5269C1126.49 59.1137 1129.82 58.2474 1180.5 75.5029C1246.7 98.0538 1272.04 110.196 1332.32 131.042C1383.35 149.114 1437.03 159.888 1491.53 162.996" stroke="#333333" stroke-width="0.8" stroke-miterlimit="10"/>
<path d="M0.303223 353.757C56.2225 368.805 131.728 373.876 208.991 349.747C279.119 327.838 314.731 288.898 363.411 258.928C467.454 194.88 506.1 145.335 567.487 134.227C634.416 122.128 687.647 110.293 740.697 99.5628C804.231 86.6945 818.05 77.7105 868.367 89.7823C920.501 102.287 1020.61 88.3851 1078.17 76.5927C1133.38 65.3312 1136.74 65.415 1189.69 86.1077C1256.23 112.194 1280.05 123.106 1335.11 142.527C1369.34 154.599 1420.98 170.387 1492.82 173.517" stroke="#333333" stroke-width="0.8" stroke-miterlimit="10"/>
<path d="M0.303223 365.884C57.5293 381.757 129.971 385.767 202.322 363.09C271.849 341.294 305.103 301.85 356.276 270.874C454.642 211.311 492.733 167.677 554.54 156.303C628.738 142.639 687.046 127.367 746.044 112.291C815.301 94.5887 832.589 81.1196 888.734 91.3332C942.25 101.114 1035.81 90.3831 1089.25 80.8542C1140.32 71.7444 1143.8 72.5827 1198.9 96.9221C1265.76 126.445 1288.02 136.267 1337.83 154.208C1371.57 166.363 1422.44 182.152 1494.04 184.247" stroke="#333333" stroke-width="0.8" stroke-miterlimit="10"/>
<path d="M0.303223 378.152C58.8811 394.919 128.213 397.797 195.653 376.587C264.579 354.903 295.445 314.942 349.142 282.974C441.785 227.813 479.365 190.032 541.577 178.533C623.121 163.457 686.52 144.637 751.391 125.174C826.491 102.651 847.144 85.0041 909.101 93.0381C964.074 100.164 1051.01 92.6049 1100.32 85.2696C1147.15 78.2835 1150.86 79.8903 1208.09 107.89C1275.38 140.795 1295.98 149.625 1340.55 166.042C1373.8 178.296 1423.88 194.14 1495.25 195.118" stroke="#333333" stroke-width="0.8" stroke-miterlimit="10"/>
<path d="M0.303223 390.601C60.1277 408.164 126.471 409.994 188.984 390.252C257.31 368.665 285.758 328.146 342.007 295.242C428.868 244.411 464.916 205.667 528.63 200.93C618.96 194.21 686.039 162.088 756.738 138.224C837.741 110.894 864.882 75.3492 929.468 94.9101C983.42 111.299 1066.15 94.9101 1111.4 89.8523C1154.03 85.0319 1157.97 87.3093 1217.3 119.012C1285.05 155.242 1303.92 163.206 1343.27 178.044C1376.03 190.409 1425.34 206.268 1496.47 206.17" stroke="#333333" stroke-width="0.8" stroke-miterlimit="10"/>
<path d="M0.304199 403.455C61.4354 421.87 124.715 422.569 182.331 404.405C250.041 382.916 276.041 341.783 334.874 307.998C415.982 261.429 451.534 229.517 515.669 223.816C613.299 215.112 685.62 180.042 762.102 151.762C849.067 119.627 878.311 81.7483 949.851 97.2713C1006.6 109.595 1081.4 97.8022 1122.48 94.924C1160.91 92.2274 1165.19 95.1615 1226.49 130.637C1294.78 170.15 1311.85 177.317 1346 190.535C1378.25 203.026 1426.79 218.87 1497.7 217.697" stroke="#333333" stroke-width="0.8" stroke-miterlimit="10"/>
<path d="M0.303711 417.12C62.7267 436.388 122.942 436.01 175.662 419.216C242.771 397.825 266.277 356.02 327.739 321.411C402.929 279.062 438.136 254.024 502.721 247.359C607.681 236.531 685.229 198.667 767.448 165.972C860.452 128.988 892.114 89.5729 970.218 100.303C1029.61 108.463 1096.57 101.281 1133.56 100.653C1167.78 100.066 1172.45 103.643 1235.7 142.918C1304.56 185.687 1319.81 192.142 1348.72 203.697C1380.46 216.355 1428.33 232.144 1498.92 229.894" stroke="#333333" stroke-width="0.8" stroke-miterlimit="10"/>
<path d="M0.303711 431.022C64.0334 451.142 121.184 449.661 168.993 434.348C235.501 413.04 256.469 370.481 320.604 335.146C389.921 296.946 424.693 278.825 489.759 271.224C601.988 258.118 684.868 217.599 772.795 180.489C871.927 138.671 906.263 98.2914 990.585 103.643C1052.47 107.569 1111.75 105.04 1144.63 106.703C1174.61 108.198 1179.75 112.389 1244.89 155.521C1314.42 201.531 1327.62 207.399 1351.44 217.18C1382.64 230.048 1429.69 245.753 1500.14 242.413" stroke="#333333" stroke-width="0.8" stroke-miterlimit="10"/>
<path d="M0.303223 446.154C65.3396 467.112 119.381 464.457 162.324 450.695C228.186 429.346 246.585 386.046 313.469 350.096C376.884 316.004 411.234 304.827 476.811 296.304C596.25 280.781 684.537 237.761 778.082 196.222C883.222 149.569 921.057 114.569 1010.89 108.198C1074.91 103.671 1126.86 110.014 1155.65 113.968C1181.44 117.517 1187.05 122.351 1254.03 169.325C1324.24 218.591 1335.41 223.817 1354.1 231.85C1384.71 245.026 1431.09 260.549 1501.29 256.134" stroke="#333333" stroke-width="0.8" stroke-miterlimit="10"/>
<path d="M0.303711 461.132C66.6319 482.942 117.625 479.198 155.67 466.902C220.917 445.651 236.613 401.318 306.335 364.906C363.832 334.88 397.747 330.675 463.85 321.244C590.483 303.178 684.223 257.769 783.504 211.828C894.787 160.313 936.182 122.407 1031.33 112.627C1097.42 105.864 1142.14 114.764 1166.78 121.094C1188.4 126.683 1194.51 132.132 1263.29 183.004C1334.24 235.483 1343.28 240.192 1356.89 246.409C1386.81 260.074 1432.61 275.206 1502.59 269.715" stroke="#333333" stroke-width="0.8" stroke-miterlimit="10"/>
<path d="M0.303711 476.124C67.8935 498.773 115.957 493.952 149.001 483.11C213.587 461.956 226.534 416.366 299.201 379.717C350.779 353.701 384.244 356.523 450.903 346.184C584.655 325.435 683.922 277.721 788.852 227.421C906.278 171.058 951.353 130.19 1051.7 117.042C1120.12 108.086 1157.4 119.445 1177.87 128.22C1195.34 135.709 1201.9 141.898 1272.49 196.683C1344.21 252.389 1351.05 256.623 1359.61 260.954C1388.55 275.611 1434.05 289.876 1503.8 283.31" stroke="#333333" stroke-width="0.8" stroke-miterlimit="10"/>
</svg>